# xmcd
#
# Track frame offsets: 
#        150
#        14542
#        27665
#        42082
#        53612
#        64402
#        80635
#        91390
#        109460
#        122527
#
# Disc length: 1770 seconds
#
# Revision: 0
# Processed by: cddbd v1.5.2PL0 Copyright (c) Steve Scherf et al.
# Submitted via: ExactAudioCopy v1.0b3
#
DISCID=8606e80a
DTITLE=The Everly Brothers - Country Classics
DYEAR=2004
DGENRE=Country
TTITLE0=The Brand New Tennessee Waltz
TTITLE1=Rocky Top
TTITLE2=Ladies Love Outlaws
TTITLE3=Good Hearted Woman
TTITLE4=A Nickel For The Fiddler
TTITLE5=Paradise
TTITLE6=Husbands And Wives
TTITLE7=Poems, Prayers And Promises
TTITLE8=Sweet Memories
TTITLE9=Maiden's Prayer
EXTD=
EXTT0=
EXTT1=
EXTT2=
EXTT3=
EXTT4=
EXTT5=
EXTT6=
EXTT7=
EXTT8=
EXTT9=
PLAYORDER=
